<svg xmlns="http://www.w3.org/2000/svg" width="672" height="116" viewBox="0 0 672 116" role="img" aria-label="compressor">
  <title>compressor</title>
  <defs>
    <linearGradient id="px" gradientUnits="userSpaceOnUse" x1="0" y1="0" x2="672" y2="0">
      <stop offset="0" stop-color="#a855f7"/>
      <stop offset="1" stop-color="#7c3aed"/>
    </linearGradient>
  </defs>
    <rect x="27" y="14" width="11" height="16" fill="url(#px)"/>
    <rect x="40" y="14" width="11" height="16" fill="url(#px)"/>
    <rect x="53" y="14" width="11" height="16" fill="url(#px)"/>
    <rect x="14" y="32" width="11" height="16" fill="url(#px)"/>
    <rect x="14" y="50" width="11" height="16" fill="url(#px)"/>
    <rect x="14" y="68" width="11" height="16" fill="url(#px)"/>
    <rect x="27" y="86" width="11" height="16" fill="url(#px)"/>
    <rect x="40" y="86" width="11" height="16" fill="url(#px)"/>
    <rect x="53" y="86" width="11" height="16" fill="url(#px)"/>
    <rect x="93" y="14" width="11" height="16" fill="url(#px)"/>
    <rect x="106" y="14" width="11" height="16" fill="url(#px)"/>
    <rect x="80" y="32" width="11" height="16" fill="url(#px)"/>
    <rect x="119" y="32" width="11" height="16" fill="url(#px)"/>
    <rect x="80" y="50" width="11" height="16" fill="url(#px)"/>
    <rect x="119" y="50" width="11" height="16" fill="url(#px)"/>
    <rect x="80" y="68" width="11" height="16" fill="url(#px)"/>
    <rect x="119" y="68" width="11" height="16" fill="url(#px)"/>
    <rect x="93" y="86" width="11" height="16" fill="url(#px)"/>
    <rect x="106" y="86" width="11" height="16" fill="url(#px)"/>
    <rect x="146" y="14" width="11" height="16" fill="url(#px)"/>
    <rect x="185" y="14" width="11" height="16" fill="url(#px)"/>
    <rect x="146" y="32" width="11" height="16" fill="url(#px)"/>
    <rect x="159" y="32" width="11" height="16" fill="url(#px)"/>
    <rect x="172" y="32" width="11" height="16" fill="url(#px)"/>
    <rect x="185" y="32" width="11" height="16" fill="url(#px)"/>
    <rect x="146" y="50" width="11" height="16" fill="url(#px)"/>
    <rect x="159" y="50" width="11" height="16" fill="url(#px)"/>
    <rect x="172" y="50" width="11" height="16" fill="url(#px)"/>
    <rect x="185" y="50" width="11" height="16" fill="url(#px)"/>
    <rect x="146" y="68" width="11" height="16" fill="url(#px)"/>
    <rect x="185" y="68" width="11" height="16" fill="url(#px)"/>
    <rect x="146" y="86" width="11" height="16" fill="url(#px)"/>
    <rect x="185" y="86" width="11" height="16" fill="url(#px)"/>
    <rect x="212" y="14" width="11" height="16" fill="url(#px)"/>
    <rect x="225" y="14" width="11" height="16" fill="url(#px)"/>
    <rect x="238" y="14" width="11" height="16" fill="url(#px)"/>
    <rect x="212" y="32" width="11" height="16" fill="url(#px)"/>
    <rect x="251" y="32" width="11" height="16" fill="url(#px)"/>
    <rect x="212" y="50" width="11" height="16" fill="url(#px)"/>
    <rect x="225" y="50" width="11" height="16" fill="url(#px)"/>
    <rect x="238" y="50" width="11" height="16" fill="url(#px)"/>
    <rect x="212" y="68" width="11" height="16" fill="url(#px)"/>
    <rect x="212" y="86" width="11" height="16" fill="url(#px)"/>
    <rect x="278" y="14" width="11" height="16" fill="url(#px)"/>
    <rect x="291" y="14" width="11" height="16" fill="url(#px)"/>
    <rect x="304" y="14" width="11" height="16" fill="url(#px)"/>
    <rect x="278" y="32" width="11" height="16" fill="url(#px)"/>
    <rect x="317" y="32" width="11" height="16" fill="url(#px)"/>
    <rect x="278" y="50" width="11" height="16" fill="url(#px)"/>
    <rect x="291" y="50" width="11" height="16" fill="url(#px)"/>
    <rect x="304" y="50" width="11" height="16" fill="url(#px)"/>
    <rect x="278" y="68" width="11" height="16" fill="url(#px)"/>
    <rect x="304" y="68" width="11" height="16" fill="url(#px)"/>
    <rect x="278" y="86" width="11" height="16" fill="url(#px)"/>
    <rect x="317" y="86" width="11" height="16" fill="url(#px)"/>
    <rect x="344" y="14" width="11" height="16" fill="url(#px)"/>
    <rect x="357" y="14" width="11" height="16" fill="url(#px)"/>
    <rect x="370" y="14" width="11" height="16" fill="url(#px)"/>
    <rect x="383" y="14" width="11" height="16" fill="url(#px)"/>
    <rect x="344" y="32" width="11" height="16" fill="url(#px)"/>
    <rect x="344" y="50" width="11" height="16" fill="url(#px)"/>
    <rect x="357" y="50" width="11" height="16" fill="url(#px)"/>
    <rect x="370" y="50" width="11" height="16" fill="url(#px)"/>
    <rect x="344" y="68" width="11" height="16" fill="url(#px)"/>
    <rect x="344" y="86" width="11" height="16" fill="url(#px)"/>
    <rect x="357" y="86" width="11" height="16" fill="url(#px)"/>
    <rect x="370" y="86" width="11" height="16" fill="url(#px)"/>
    <rect x="383" y="86" width="11" height="16" fill="url(#px)"/>
    <rect x="423" y="14" width="11" height="16" fill="url(#px)"/>
    <rect x="436" y="14" width="11" height="16" fill="url(#px)"/>
    <rect x="449" y="14" width="11" height="16" fill="url(#px)"/>
    <rect x="410" y="32" width="11" height="16" fill="url(#px)"/>
    <rect x="423" y="50" width="11" height="16" fill="url(#px)"/>
    <rect x="436" y="50" width="11" height="16" fill="url(#px)"/>
    <rect x="449" y="68" width="11" height="16" fill="url(#px)"/>
    <rect x="410" y="86" width="11" height="16" fill="url(#px)"/>
    <rect x="423" y="86" width="11" height="16" fill="url(#px)"/>
    <rect x="436" y="86" width="11" height="16" fill="url(#px)"/>
    <rect x="489" y="14" width="11" height="16" fill="url(#px)"/>
    <rect x="502" y="14" width="11" height="16" fill="url(#px)"/>
    <rect x="515" y="14" width="11" height="16" fill="url(#px)"/>
    <rect x="476" y="32" width="11" height="16" fill="url(#px)"/>
    <rect x="489" y="50" width="11" height="16" fill="url(#px)"/>
    <rect x="502" y="50" width="11" height="16" fill="url(#px)"/>
    <rect x="515" y="68" width="11" height="16" fill="url(#px)"/>
    <rect x="476" y="86" width="11" height="16" fill="url(#px)"/>
    <rect x="489" y="86" width="11" height="16" fill="url(#px)"/>
    <rect x="502" y="86" width="11" height="16" fill="url(#px)"/>
    <rect x="555" y="14" width="11" height="16" fill="url(#px)"/>
    <rect x="568" y="14" width="11" height="16" fill="url(#px)"/>
    <rect x="542" y="32" width="11" height="16" fill="url(#px)"/>
    <rect x="581" y="32" width="11" height="16" fill="url(#px)"/>
    <rect x="542" y="50" width="11" height="16" fill="url(#px)"/>
    <rect x="581" y="50" width="11" height="16" fill="url(#px)"/>
    <rect x="542" y="68" width="11" height="16" fill="url(#px)"/>
    <rect x="581" y="68" width="11" height="16" fill="url(#px)"/>
    <rect x="555" y="86" width="11" height="16" fill="url(#px)"/>
    <rect x="568" y="86" width="11" height="16" fill="url(#px)"/>
    <rect x="608" y="14" width="11" height="16" fill="url(#px)"/>
    <rect x="621" y="14" width="11" height="16" fill="url(#px)"/>
    <rect x="634" y="14" width="11" height="16" fill="url(#px)"/>
    <rect x="608" y="32" width="11" height="16" fill="url(#px)"/>
    <rect x="647" y="32" width="11" height="16" fill="url(#px)"/>
    <rect x="608" y="50" width="11" height="16" fill="url(#px)"/>
    <rect x="621" y="50" width="11" height="16" fill="url(#px)"/>
    <rect x="634" y="50" width="11" height="16" fill="url(#px)"/>
    <rect x="608" y="68" width="11" height="16" fill="url(#px)"/>
    <rect x="634" y="68" width="11" height="16" fill="url(#px)"/>
    <rect x="608" y="86" width="11" height="16" fill="url(#px)"/>
    <rect x="647" y="86" width="11" height="16" fill="url(#px)"/>
</svg>
