<svg xmlns="http://www.w3.org/2000/svg" width="732" height="124" viewBox="0 0 732 124" role="img" aria-label="compressor">
  <title>compressor</title>
  <defs>
    <linearGradient id="px" gradientUnits="userSpaceOnUse" x1="0" y1="0" x2="732" y2="0">
      <stop offset="0" stop-color="#a855f7"/>
      <stop offset="1" stop-color="#7c3aed"/>
    </linearGradient>
  </defs>
    <rect x="26" y="14" width="8" height="16" fill="url(#px)"/>
    <rect x="38" y="14" width="8" height="16" fill="url(#px)"/>
    <rect x="50" y="14" width="8" height="16" fill="url(#px)"/>
    <rect x="62" y="14" width="8" height="16" fill="url(#px)"/>
    <rect x="14" y="34" width="8" height="16" fill="url(#px)"/>
    <rect x="14" y="54" width="8" height="16" fill="url(#px)"/>
    <rect x="14" y="74" width="8" height="16" fill="url(#px)"/>
    <rect x="26" y="94" width="8" height="16" fill="url(#px)"/>
    <rect x="38" y="94" width="8" height="16" fill="url(#px)"/>
    <rect x="50" y="94" width="8" height="16" fill="url(#px)"/>
    <rect x="62" y="94" width="8" height="16" fill="url(#px)"/>
    <rect x="98" y="14" width="8" height="16" fill="url(#px)"/>
    <rect x="110" y="14" width="8" height="16" fill="url(#px)"/>
    <rect x="122" y="14" width="8" height="16" fill="url(#px)"/>
    <rect x="86" y="34" width="8" height="16" fill="url(#px)"/>
    <rect x="134" y="34" width="8" height="16" fill="url(#px)"/>
    <rect x="86" y="54" width="8" height="16" fill="url(#px)"/>
    <rect x="134" y="54" width="8" height="16" fill="url(#px)"/>
    <rect x="86" y="74" width="8" height="16" fill="url(#px)"/>
    <rect x="134" y="74" width="8" height="16" fill="url(#px)"/>
    <rect x="98" y="94" width="8" height="16" fill="url(#px)"/>
    <rect x="110" y="94" width="8" height="16" fill="url(#px)"/>
    <rect x="122" y="94" width="8" height="16" fill="url(#px)"/>
    <rect x="158" y="14" width="8" height="16" fill="url(#px)"/>
    <rect x="206" y="14" width="8" height="16" fill="url(#px)"/>
    <rect x="158" y="34" width="8" height="16" fill="url(#px)"/>
    <rect x="170" y="34" width="8" height="16" fill="url(#px)"/>
    <rect x="194" y="34" width="8" height="16" fill="url(#px)"/>
    <rect x="206" y="34" width="8" height="16" fill="url(#px)"/>
    <rect x="158" y="54" width="8" height="16" fill="url(#px)"/>
    <rect x="182" y="54" width="8" height="16" fill="url(#px)"/>
    <rect x="206" y="54" width="8" height="16" fill="url(#px)"/>
    <rect x="158" y="74" width="8" height="16" fill="url(#px)"/>
    <rect x="206" y="74" width="8" height="16" fill="url(#px)"/>
    <rect x="158" y="94" width="8" height="16" fill="url(#px)"/>
    <rect x="206" y="94" width="8" height="16" fill="url(#px)"/>
    <rect x="230" y="14" width="8" height="16" fill="url(#px)"/>
    <rect x="242" y="14" width="8" height="16" fill="url(#px)"/>
    <rect x="254" y="14" width="8" height="16" fill="url(#px)"/>
    <rect x="266" y="14" width="8" height="16" fill="url(#px)"/>
    <rect x="230" y="34" width="8" height="16" fill="url(#px)"/>
    <rect x="278" y="34" width="8" height="16" fill="url(#px)"/>
    <rect x="230" y="54" width="8" height="16" fill="url(#px)"/>
    <rect x="242" y="54" width="8" height="16" fill="url(#px)"/>
    <rect x="254" y="54" width="8" height="16" fill="url(#px)"/>
    <rect x="266" y="54" width="8" height="16" fill="url(#px)"/>
    <rect x="230" y="74" width="8" height="16" fill="url(#px)"/>
    <rect x="230" y="94" width="8" height="16" fill="url(#px)"/>
    <rect x="302" y="14" width="8" height="16" fill="url(#px)"/>
    <rect x="314" y="14" width="8" height="16" fill="url(#px)"/>
    <rect x="326" y="14" width="8" height="16" fill="url(#px)"/>
    <rect x="338" y="14" width="8" height="16" fill="url(#px)"/>
    <rect x="302" y="34" width="8" height="16" fill="url(#px)"/>
    <rect x="350" y="34" width="8" height="16" fill="url(#px)"/>
    <rect x="302" y="54" width="8" height="16" fill="url(#px)"/>
    <rect x="314" y="54" width="8" height="16" fill="url(#px)"/>
    <rect x="326" y="54" width="8" height="16" fill="url(#px)"/>
    <rect x="338" y="54" width="8" height="16" fill="url(#px)"/>
    <rect x="302" y="74" width="8" height="16" fill="url(#px)"/>
    <rect x="338" y="74" width="8" height="16" fill="url(#px)"/>
    <rect x="302" y="94" width="8" height="16" fill="url(#px)"/>
    <rect x="350" y="94" width="8" height="16" fill="url(#px)"/>
    <rect x="374" y="14" width="8" height="16" fill="url(#px)"/>
    <rect x="386" y="14" width="8" height="16" fill="url(#px)"/>
    <rect x="398" y="14" width="8" height="16" fill="url(#px)"/>
    <rect x="410" y="14" width="8" height="16" fill="url(#px)"/>
    <rect x="422" y="14" width="8" height="16" fill="url(#px)"/>
    <rect x="374" y="34" width="8" height="16" fill="url(#px)"/>
    <rect x="374" y="54" width="8" height="16" fill="url(#px)"/>
    <rect x="386" y="54" width="8" height="16" fill="url(#px)"/>
    <rect x="398" y="54" width="8" height="16" fill="url(#px)"/>
    <rect x="410" y="54" width="8" height="16" fill="url(#px)"/>
    <rect x="374" y="74" width="8" height="16" fill="url(#px)"/>
    <rect x="374" y="94" width="8" height="16" fill="url(#px)"/>
    <rect x="386" y="94" width="8" height="16" fill="url(#px)"/>
    <rect x="398" y="94" width="8" height="16" fill="url(#px)"/>
    <rect x="410" y="94" width="8" height="16" fill="url(#px)"/>
    <rect x="422" y="94" width="8" height="16" fill="url(#px)"/>
    <rect x="458" y="14" width="8" height="16" fill="url(#px)"/>
    <rect x="470" y="14" width="8" height="16" fill="url(#px)"/>
    <rect x="482" y="14" width="8" height="16" fill="url(#px)"/>
    <rect x="494" y="14" width="8" height="16" fill="url(#px)"/>
    <rect x="446" y="34" width="8" height="16" fill="url(#px)"/>
    <rect x="458" y="54" width="8" height="16" fill="url(#px)"/>
    <rect x="470" y="54" width="8" height="16" fill="url(#px)"/>
    <rect x="482" y="54" width="8" height="16" fill="url(#px)"/>
    <rect x="494" y="74" width="8" height="16" fill="url(#px)"/>
    <rect x="446" y="94" width="8" height="16" fill="url(#px)"/>
    <rect x="458" y="94" width="8" height="16" fill="url(#px)"/>
    <rect x="470" y="94" width="8" height="16" fill="url(#px)"/>
    <rect x="482" y="94" width="8" height="16" fill="url(#px)"/>
    <rect x="530" y="14" width="8" height="16" fill="url(#px)"/>
    <rect x="542" y="14" width="8" height="16" fill="url(#px)"/>
    <rect x="554" y="14" width="8" height="16" fill="url(#px)"/>
    <rect x="566" y="14" width="8" height="16" fill="url(#px)"/>
    <rect x="518" y="34" width="8" height="16" fill="url(#px)"/>
    <rect x="530" y="54" width="8" height="16" fill="url(#px)"/>
    <rect x="542" y="54" width="8" height="16" fill="url(#px)"/>
    <rect x="554" y="54" width="8" height="16" fill="url(#px)"/>
    <rect x="566" y="74" width="8" height="16" fill="url(#px)"/>
    <rect x="518" y="94" width="8" height="16" fill="url(#px)"/>
    <rect x="530" y="94" width="8" height="16" fill="url(#px)"/>
    <rect x="542" y="94" width="8" height="16" fill="url(#px)"/>
    <rect x="554" y="94" width="8" height="16" fill="url(#px)"/>
    <rect x="602" y="14" width="8" height="16" fill="url(#px)"/>
    <rect x="614" y="14" width="8" height="16" fill="url(#px)"/>
    <rect x="626" y="14" width="8" height="16" fill="url(#px)"/>
    <rect x="590" y="34" width="8" height="16" fill="url(#px)"/>
    <rect x="638" y="34" width="8" height="16" fill="url(#px)"/>
    <rect x="590" y="54" width="8" height="16" fill="url(#px)"/>
    <rect x="638" y="54" width="8" height="16" fill="url(#px)"/>
    <rect x="590" y="74" width="8" height="16" fill="url(#px)"/>
    <rect x="638" y="74" width="8" height="16" fill="url(#px)"/>
    <rect x="602" y="94" width="8" height="16" fill="url(#px)"/>
    <rect x="614" y="94" width="8" height="16" fill="url(#px)"/>
    <rect x="626" y="94" width="8" height="16" fill="url(#px)"/>
    <rect x="662" y="14" width="8" height="16" fill="url(#px)"/>
    <rect x="674" y="14" width="8" height="16" fill="url(#px)"/>
    <rect x="686" y="14" width="8" height="16" fill="url(#px)"/>
    <rect x="698" y="14" width="8" height="16" fill="url(#px)"/>
    <rect x="662" y="34" width="8" height="16" fill="url(#px)"/>
    <rect x="710" y="34" width="8" height="16" fill="url(#px)"/>
    <rect x="662" y="54" width="8" height="16" fill="url(#px)"/>
    <rect x="674" y="54" width="8" height="16" fill="url(#px)"/>
    <rect x="686" y="54" width="8" height="16" fill="url(#px)"/>
    <rect x="698" y="54" width="8" height="16" fill="url(#px)"/>
    <rect x="662" y="74" width="8" height="16" fill="url(#px)"/>
    <rect x="698" y="74" width="8" height="16" fill="url(#px)"/>
    <rect x="662" y="94" width="8" height="16" fill="url(#px)"/>
    <rect x="710" y="94" width="8" height="16" fill="url(#px)"/>
</svg>
