<svg xmlns="http://www.w3.org/2000/svg" width="1032" height="124" viewBox="0 0 1032 124" role="img" aria-label="compressor">
  <title>compressor</title>
  <defs>
    <linearGradient id="px" gradientUnits="userSpaceOnUse" x1="0" y1="0" x2="1032" y2="0">
      <stop offset="0" stop-color="#a855f7"/>
      <stop offset="1" stop-color="#7c3aed"/>
    </linearGradient>
  </defs>
    <rect x="32" y="14" width="14" height="16" fill="url(#px)"/>
    <rect x="50" y="14" width="14" height="16" fill="url(#px)"/>
    <rect x="68" y="14" width="14" height="16" fill="url(#px)"/>
    <rect x="86" y="14" width="14" height="16" fill="url(#px)"/>
    <rect x="14" y="34" width="14" height="16" fill="url(#px)"/>
    <rect x="14" y="54" width="14" height="16" fill="url(#px)"/>
    <rect x="14" y="74" width="14" height="16" fill="url(#px)"/>
    <rect x="32" y="94" width="14" height="16" fill="url(#px)"/>
    <rect x="50" y="94" width="14" height="16" fill="url(#px)"/>
    <rect x="68" y="94" width="14" height="16" fill="url(#px)"/>
    <rect x="86" y="94" width="14" height="16" fill="url(#px)"/>
    <rect x="134" y="14" width="14" height="16" fill="url(#px)"/>
    <rect x="152" y="14" width="14" height="16" fill="url(#px)"/>
    <rect x="170" y="14" width="14" height="16" fill="url(#px)"/>
    <rect x="116" y="34" width="14" height="16" fill="url(#px)"/>
    <rect x="188" y="34" width="14" height="16" fill="url(#px)"/>
    <rect x="116" y="54" width="14" height="16" fill="url(#px)"/>
    <rect x="188" y="54" width="14" height="16" fill="url(#px)"/>
    <rect x="116" y="74" width="14" height="16" fill="url(#px)"/>
    <rect x="188" y="74" width="14" height="16" fill="url(#px)"/>
    <rect x="134" y="94" width="14" height="16" fill="url(#px)"/>
    <rect x="152" y="94" width="14" height="16" fill="url(#px)"/>
    <rect x="170" y="94" width="14" height="16" fill="url(#px)"/>
    <rect x="218" y="14" width="14" height="16" fill="url(#px)"/>
    <rect x="290" y="14" width="14" height="16" fill="url(#px)"/>
    <rect x="218" y="34" width="14" height="16" fill="url(#px)"/>
    <rect x="236" y="34" width="14" height="16" fill="url(#px)"/>
    <rect x="272" y="34" width="14" height="16" fill="url(#px)"/>
    <rect x="290" y="34" width="14" height="16" fill="url(#px)"/>
    <rect x="218" y="54" width="14" height="16" fill="url(#px)"/>
    <rect x="254" y="54" width="14" height="16" fill="url(#px)"/>
    <rect x="290" y="54" width="14" height="16" fill="url(#px)"/>
    <rect x="218" y="74" width="14" height="16" fill="url(#px)"/>
    <rect x="290" y="74" width="14" height="16" fill="url(#px)"/>
    <rect x="218" y="94" width="14" height="16" fill="url(#px)"/>
    <rect x="290" y="94" width="14" height="16" fill="url(#px)"/>
    <rect x="320" y="14" width="14" height="16" fill="url(#px)"/>
    <rect x="338" y="14" width="14" height="16" fill="url(#px)"/>
    <rect x="356" y="14" width="14" height="16" fill="url(#px)"/>
    <rect x="374" y="14" width="14" height="16" fill="url(#px)"/>
    <rect x="320" y="34" width="14" height="16" fill="url(#px)"/>
    <rect x="392" y="34" width="14" height="16" fill="url(#px)"/>
    <rect x="320" y="54" width="14" height="16" fill="url(#px)"/>
    <rect x="338" y="54" width="14" height="16" fill="url(#px)"/>
    <rect x="356" y="54" width="14" height="16" fill="url(#px)"/>
    <rect x="374" y="54" width="14" height="16" fill="url(#px)"/>
    <rect x="320" y="74" width="14" height="16" fill="url(#px)"/>
    <rect x="320" y="94" width="14" height="16" fill="url(#px)"/>
    <rect x="422" y="14" width="14" height="16" fill="url(#px)"/>
    <rect x="440" y="14" width="14" height="16" fill="url(#px)"/>
    <rect x="458" y="14" width="14" height="16" fill="url(#px)"/>
    <rect x="476" y="14" width="14" height="16" fill="url(#px)"/>
    <rect x="422" y="34" width="14" height="16" fill="url(#px)"/>
    <rect x="494" y="34" width="14" height="16" fill="url(#px)"/>
    <rect x="422" y="54" width="14" height="16" fill="url(#px)"/>
    <rect x="440" y="54" width="14" height="16" fill="url(#px)"/>
    <rect x="458" y="54" width="14" height="16" fill="url(#px)"/>
    <rect x="476" y="54" width="14" height="16" fill="url(#px)"/>
    <rect x="422" y="74" width="14" height="16" fill="url(#px)"/>
    <rect x="476" y="74" width="14" height="16" fill="url(#px)"/>
    <rect x="422" y="94" width="14" height="16" fill="url(#px)"/>
    <rect x="494" y="94" width="14" height="16" fill="url(#px)"/>
    <rect x="524" y="14" width="14" height="16" fill="url(#px)"/>
    <rect x="542" y="14" width="14" height="16" fill="url(#px)"/>
    <rect x="560" y="14" width="14" height="16" fill="url(#px)"/>
    <rect x="578" y="14" width="14" height="16" fill="url(#px)"/>
    <rect x="596" y="14" width="14" height="16" fill="url(#px)"/>
    <rect x="524" y="34" width="14" height="16" fill="url(#px)"/>
    <rect x="524" y="54" width="14" height="16" fill="url(#px)"/>
    <rect x="542" y="54" width="14" height="16" fill="url(#px)"/>
    <rect x="560" y="54" width="14" height="16" fill="url(#px)"/>
    <rect x="578" y="54" width="14" height="16" fill="url(#px)"/>
    <rect x="524" y="74" width="14" height="16" fill="url(#px)"/>
    <rect x="524" y="94" width="14" height="16" fill="url(#px)"/>
    <rect x="542" y="94" width="14" height="16" fill="url(#px)"/>
    <rect x="560" y="94" width="14" height="16" fill="url(#px)"/>
    <rect x="578" y="94" width="14" height="16" fill="url(#px)"/>
    <rect x="596" y="94" width="14" height="16" fill="url(#px)"/>
    <rect x="644" y="14" width="14" height="16" fill="url(#px)"/>
    <rect x="662" y="14" width="14" height="16" fill="url(#px)"/>
    <rect x="680" y="14" width="14" height="16" fill="url(#px)"/>
    <rect x="698" y="14" width="14" height="16" fill="url(#px)"/>
    <rect x="626" y="34" width="14" height="16" fill="url(#px)"/>
    <rect x="644" y="54" width="14" height="16" fill="url(#px)"/>
    <rect x="662" y="54" width="14" height="16" fill="url(#px)"/>
    <rect x="680" y="54" width="14" height="16" fill="url(#px)"/>
    <rect x="698" y="74" width="14" height="16" fill="url(#px)"/>
    <rect x="626" y="94" width="14" height="16" fill="url(#px)"/>
    <rect x="644" y="94" width="14" height="16" fill="url(#px)"/>
    <rect x="662" y="94" width="14" height="16" fill="url(#px)"/>
    <rect x="680" y="94" width="14" height="16" fill="url(#px)"/>
    <rect x="746" y="14" width="14" height="16" fill="url(#px)"/>
    <rect x="764" y="14" width="14" height="16" fill="url(#px)"/>
    <rect x="782" y="14" width="14" height="16" fill="url(#px)"/>
    <rect x="800" y="14" width="14" height="16" fill="url(#px)"/>
    <rect x="728" y="34" width="14" height="16" fill="url(#px)"/>
    <rect x="746" y="54" width="14" height="16" fill="url(#px)"/>
    <rect x="764" y="54" width="14" height="16" fill="url(#px)"/>
    <rect x="782" y="54" width="14" height="16" fill="url(#px)"/>
    <rect x="800" y="74" width="14" height="16" fill="url(#px)"/>
    <rect x="728" y="94" width="14" height="16" fill="url(#px)"/>
    <rect x="746" y="94" width="14" height="16" fill="url(#px)"/>
    <rect x="764" y="94" width="14" height="16" fill="url(#px)"/>
    <rect x="782" y="94" width="14" height="16" fill="url(#px)"/>
    <rect x="848" y="14" width="14" height="16" fill="url(#px)"/>
    <rect x="866" y="14" width="14" height="16" fill="url(#px)"/>
    <rect x="884" y="14" width="14" height="16" fill="url(#px)"/>
    <rect x="830" y="34" width="14" height="16" fill="url(#px)"/>
    <rect x="902" y="34" width="14" height="16" fill="url(#px)"/>
    <rect x="830" y="54" width="14" height="16" fill="url(#px)"/>
    <rect x="902" y="54" width="14" height="16" fill="url(#px)"/>
    <rect x="830" y="74" width="14" height="16" fill="url(#px)"/>
    <rect x="902" y="74" width="14" height="16" fill="url(#px)"/>
    <rect x="848" y="94" width="14" height="16" fill="url(#px)"/>
    <rect x="866" y="94" width="14" height="16" fill="url(#px)"/>
    <rect x="884" y="94" width="14" height="16" fill="url(#px)"/>
    <rect x="932" y="14" width="14" height="16" fill="url(#px)"/>
    <rect x="950" y="14" width="14" height="16" fill="url(#px)"/>
    <rect x="968" y="14" width="14" height="16" fill="url(#px)"/>
    <rect x="986" y="14" width="14" height="16" fill="url(#px)"/>
    <rect x="932" y="34" width="14" height="16" fill="url(#px)"/>
    <rect x="1004" y="34" width="14" height="16" fill="url(#px)"/>
    <rect x="932" y="54" width="14" height="16" fill="url(#px)"/>
    <rect x="950" y="54" width="14" height="16" fill="url(#px)"/>
    <rect x="968" y="54" width="14" height="16" fill="url(#px)"/>
    <rect x="986" y="54" width="14" height="16" fill="url(#px)"/>
    <rect x="932" y="74" width="14" height="16" fill="url(#px)"/>
    <rect x="986" y="74" width="14" height="16" fill="url(#px)"/>
    <rect x="932" y="94" width="14" height="16" fill="url(#px)"/>
    <rect x="1004" y="94" width="14" height="16" fill="url(#px)"/>
</svg>
