<svg xmlns="http://www.w3.org/2000/svg" width="879" height="126" viewBox="0 0 879 126" role="img" aria-label="compressor">
  <title>compressor</title>
  <defs>
    <linearGradient id="px" gradientUnits="userSpaceOnUse" x1="0" y1="0" x2="879" y2="126">
      <stop offset="0" stop-color="#c3aef9"/>
      <stop offset="0.5" stop-color="#9d6bf5"/>
      <stop offset="1" stop-color="#6d28d9"/>
    </linearGradient>
  </defs>
    <rect x="27" y="12" width="12" height="12" rx="2.5" fill="url(#px)"/>
    <rect x="42" y="12" width="12" height="12" rx="2.5" fill="url(#px)"/>
    <rect x="57" y="12" width="12" height="12" rx="2.5" fill="url(#px)"/>
    <rect x="12" y="27" width="12" height="12" rx="2.5" fill="url(#px)"/>
    <rect x="72" y="27" width="12" height="12" rx="2.5" fill="url(#px)"/>
    <rect x="12" y="42" width="12" height="12" rx="2.5" fill="url(#px)"/>
    <rect x="12" y="57" width="12" height="12" rx="2.5" fill="url(#px)"/>
    <rect x="12" y="72" width="12" height="12" rx="2.5" fill="url(#px)"/>
    <rect x="12" y="87" width="12" height="12" rx="2.5" fill="url(#px)"/>
    <rect x="72" y="87" width="12" height="12" rx="2.5" fill="url(#px)"/>
    <rect x="27" y="102" width="12" height="12" rx="2.5" fill="url(#px)"/>
    <rect x="42" y="102" width="12" height="12" rx="2.5" fill="url(#px)"/>
    <rect x="57" y="102" width="12" height="12" rx="2.5" fill="url(#px)"/>
    <rect x="114" y="12" width="12" height="12" rx="2.5" fill="url(#px)"/>
    <rect x="129" y="12" width="12" height="12" rx="2.5" fill="url(#px)"/>
    <rect x="144" y="12" width="12" height="12" rx="2.5" fill="url(#px)"/>
    <rect x="99" y="27" width="12" height="12" rx="2.5" fill="url(#px)"/>
    <rect x="159" y="27" width="12" height="12" rx="2.5" fill="url(#px)"/>
    <rect x="99" y="42" width="12" height="12" rx="2.5" fill="url(#px)"/>
    <rect x="159" y="42" width="12" height="12" rx="2.5" fill="url(#px)"/>
    <rect x="99" y="57" width="12" height="12" rx="2.5" fill="url(#px)"/>
    <rect x="159" y="57" width="12" height="12" rx="2.5" fill="url(#px)"/>
    <rect x="99" y="72" width="12" height="12" rx="2.5" fill="url(#px)"/>
    <rect x="159" y="72" width="12" height="12" rx="2.5" fill="url(#px)"/>
    <rect x="99" y="87" width="12" height="12" rx="2.5" fill="url(#px)"/>
    <rect x="159" y="87" width="12" height="12" rx="2.5" fill="url(#px)"/>
    <rect x="114" y="102" width="12" height="12" rx="2.5" fill="url(#px)"/>
    <rect x="129" y="102" width="12" height="12" rx="2.5" fill="url(#px)"/>
    <rect x="144" y="102" width="12" height="12" rx="2.5" fill="url(#px)"/>
    <rect x="186" y="12" width="12" height="12" rx="2.5" fill="url(#px)"/>
    <rect x="246" y="12" width="12" height="12" rx="2.5" fill="url(#px)"/>
    <rect x="186" y="27" width="12" height="12" rx="2.5" fill="url(#px)"/>
    <rect x="201" y="27" width="12" height="12" rx="2.5" fill="url(#px)"/>
    <rect x="231" y="27" width="12" height="12" rx="2.5" fill="url(#px)"/>
    <rect x="246" y="27" width="12" height="12" rx="2.5" fill="url(#px)"/>
    <rect x="186" y="42" width="12" height="12" rx="2.5" fill="url(#px)"/>
    <rect x="216" y="42" width="12" height="12" rx="2.5" fill="url(#px)"/>
    <rect x="246" y="42" width="12" height="12" rx="2.5" fill="url(#px)"/>
    <rect x="186" y="57" width="12" height="12" rx="2.5" fill="url(#px)"/>
    <rect x="216" y="57" width="12" height="12" rx="2.5" fill="url(#px)"/>
    <rect x="246" y="57" width="12" height="12" rx="2.5" fill="url(#px)"/>
    <rect x="186" y="72" width="12" height="12" rx="2.5" fill="url(#px)"/>
    <rect x="246" y="72" width="12" height="12" rx="2.5" fill="url(#px)"/>
    <rect x="186" y="87" width="12" height="12" rx="2.5" fill="url(#px)"/>
    <rect x="246" y="87" width="12" height="12" rx="2.5" fill="url(#px)"/>
    <rect x="186" y="102" width="12" height="12" rx="2.5" fill="url(#px)"/>
    <rect x="246" y="102" width="12" height="12" rx="2.5" fill="url(#px)"/>
    <rect x="273" y="12" width="12" height="12" rx="2.5" fill="url(#px)"/>
    <rect x="288" y="12" width="12" height="12" rx="2.5" fill="url(#px)"/>
    <rect x="303" y="12" width="12" height="12" rx="2.5" fill="url(#px)"/>
    <rect x="318" y="12" width="12" height="12" rx="2.5" fill="url(#px)"/>
    <rect x="273" y="27" width="12" height="12" rx="2.5" fill="url(#px)"/>
    <rect x="333" y="27" width="12" height="12" rx="2.5" fill="url(#px)"/>
    <rect x="273" y="42" width="12" height="12" rx="2.5" fill="url(#px)"/>
    <rect x="333" y="42" width="12" height="12" rx="2.5" fill="url(#px)"/>
    <rect x="273" y="57" width="12" height="12" rx="2.5" fill="url(#px)"/>
    <rect x="288" y="57" width="12" height="12" rx="2.5" fill="url(#px)"/>
    <rect x="303" y="57" width="12" height="12" rx="2.5" fill="url(#px)"/>
    <rect x="318" y="57" width="12" height="12" rx="2.5" fill="url(#px)"/>
    <rect x="273" y="72" width="12" height="12" rx="2.5" fill="url(#px)"/>
    <rect x="273" y="87" width="12" height="12" rx="2.5" fill="url(#px)"/>
    <rect x="273" y="102" width="12" height="12" rx="2.5" fill="url(#px)"/>
    <rect x="360" y="12" width="12" height="12" rx="2.5" fill="url(#px)"/>
    <rect x="375" y="12" width="12" height="12" rx="2.5" fill="url(#px)"/>
    <rect x="390" y="12" width="12" height="12" rx="2.5" fill="url(#px)"/>
    <rect x="405" y="12" width="12" height="12" rx="2.5" fill="url(#px)"/>
    <rect x="360" y="27" width="12" height="12" rx="2.5" fill="url(#px)"/>
    <rect x="420" y="27" width="12" height="12" rx="2.5" fill="url(#px)"/>
    <rect x="360" y="42" width="12" height="12" rx="2.5" fill="url(#px)"/>
    <rect x="420" y="42" width="12" height="12" rx="2.5" fill="url(#px)"/>
    <rect x="360" y="57" width="12" height="12" rx="2.5" fill="url(#px)"/>
    <rect x="375" y="57" width="12" height="12" rx="2.5" fill="url(#px)"/>
    <rect x="390" y="57" width="12" height="12" rx="2.5" fill="url(#px)"/>
    <rect x="405" y="57" width="12" height="12" rx="2.5" fill="url(#px)"/>
    <rect x="360" y="72" width="12" height="12" rx="2.5" fill="url(#px)"/>
    <rect x="390" y="72" width="12" height="12" rx="2.5" fill="url(#px)"/>
    <rect x="360" y="87" width="12" height="12" rx="2.5" fill="url(#px)"/>
    <rect x="405" y="87" width="12" height="12" rx="2.5" fill="url(#px)"/>
    <rect x="360" y="102" width="12" height="12" rx="2.5" fill="url(#px)"/>
    <rect x="420" y="102" width="12" height="12" rx="2.5" fill="url(#px)"/>
    <rect x="447" y="12" width="12" height="12" rx="2.5" fill="url(#px)"/>
    <rect x="462" y="12" width="12" height="12" rx="2.5" fill="url(#px)"/>
    <rect x="477" y="12" width="12" height="12" rx="2.5" fill="url(#px)"/>
    <rect x="492" y="12" width="12" height="12" rx="2.5" fill="url(#px)"/>
    <rect x="507" y="12" width="12" height="12" rx="2.5" fill="url(#px)"/>
    <rect x="447" y="27" width="12" height="12" rx="2.5" fill="url(#px)"/>
    <rect x="447" y="42" width="12" height="12" rx="2.5" fill="url(#px)"/>
    <rect x="447" y="57" width="12" height="12" rx="2.5" fill="url(#px)"/>
    <rect x="462" y="57" width="12" height="12" rx="2.5" fill="url(#px)"/>
    <rect x="477" y="57" width="12" height="12" rx="2.5" fill="url(#px)"/>
    <rect x="492" y="57" width="12" height="12" rx="2.5" fill="url(#px)"/>
    <rect x="447" y="72" width="12" height="12" rx="2.5" fill="url(#px)"/>
    <rect x="447" y="87" width="12" height="12" rx="2.5" fill="url(#px)"/>
    <rect x="447" y="102" width="12" height="12" rx="2.5" fill="url(#px)"/>
    <rect x="462" y="102" width="12" height="12" rx="2.5" fill="url(#px)"/>
    <rect x="477" y="102" width="12" height="12" rx="2.5" fill="url(#px)"/>
    <rect x="492" y="102" width="12" height="12" rx="2.5" fill="url(#px)"/>
    <rect x="507" y="102" width="12" height="12" rx="2.5" fill="url(#px)"/>
    <rect x="549" y="12" width="12" height="12" rx="2.5" fill="url(#px)"/>
    <rect x="564" y="12" width="12" height="12" rx="2.5" fill="url(#px)"/>
    <rect x="579" y="12" width="12" height="12" rx="2.5" fill="url(#px)"/>
    <rect x="594" y="12" width="12" height="12" rx="2.5" fill="url(#px)"/>
    <rect x="534" y="27" width="12" height="12" rx="2.5" fill="url(#px)"/>
    <rect x="534" y="42" width="12" height="12" rx="2.5" fill="url(#px)"/>
    <rect x="549" y="57" width="12" height="12" rx="2.5" fill="url(#px)"/>
    <rect x="564" y="57" width="12" height="12" rx="2.5" fill="url(#px)"/>
    <rect x="579" y="57" width="12" height="12" rx="2.5" fill="url(#px)"/>
    <rect x="594" y="72" width="12" height="12" rx="2.5" fill="url(#px)"/>
    <rect x="594" y="87" width="12" height="12" rx="2.5" fill="url(#px)"/>
    <rect x="534" y="102" width="12" height="12" rx="2.5" fill="url(#px)"/>
    <rect x="549" y="102" width="12" height="12" rx="2.5" fill="url(#px)"/>
    <rect x="564" y="102" width="12" height="12" rx="2.5" fill="url(#px)"/>
    <rect x="579" y="102" width="12" height="12" rx="2.5" fill="url(#px)"/>
    <rect x="636" y="12" width="12" height="12" rx="2.5" fill="url(#px)"/>
    <rect x="651" y="12" width="12" height="12" rx="2.5" fill="url(#px)"/>
    <rect x="666" y="12" width="12" height="12" rx="2.5" fill="url(#px)"/>
    <rect x="681" y="12" width="12" height="12" rx="2.5" fill="url(#px)"/>
    <rect x="621" y="27" width="12" height="12" rx="2.5" fill="url(#px)"/>
    <rect x="621" y="42" width="12" height="12" rx="2.5" fill="url(#px)"/>
    <rect x="636" y="57" width="12" height="12" rx="2.5" fill="url(#px)"/>
    <rect x="651" y="57" width="12" height="12" rx="2.5" fill="url(#px)"/>
    <rect x="666" y="57" width="12" height="12" rx="2.5" fill="url(#px)"/>
    <rect x="681" y="72" width="12" height="12" rx="2.5" fill="url(#px)"/>
    <rect x="681" y="87" width="12" height="12" rx="2.5" fill="url(#px)"/>
    <rect x="621" y="102" width="12" height="12" rx="2.5" fill="url(#px)"/>
    <rect x="636" y="102" width="12" height="12" rx="2.5" fill="url(#px)"/>
    <rect x="651" y="102" width="12" height="12" rx="2.5" fill="url(#px)"/>
    <rect x="666" y="102" width="12" height="12" rx="2.5" fill="url(#px)"/>
    <rect x="723" y="12" width="12" height="12" rx="2.5" fill="url(#px)"/>
    <rect x="738" y="12" width="12" height="12" rx="2.5" fill="url(#px)"/>
    <rect x="753" y="12" width="12" height="12" rx="2.5" fill="url(#px)"/>
    <rect x="708" y="27" width="12" height="12" rx="2.5" fill="url(#px)"/>
    <rect x="768" y="27" width="12" height="12" rx="2.5" fill="url(#px)"/>
    <rect x="708" y="42" width="12" height="12" rx="2.5" fill="url(#px)"/>
    <rect x="768" y="42" width="12" height="12" rx="2.5" fill="url(#px)"/>
    <rect x="708" y="57" width="12" height="12" rx="2.5" fill="url(#px)"/>
    <rect x="768" y="57" width="12" height="12" rx="2.5" fill="url(#px)"/>
    <rect x="708" y="72" width="12" height="12" rx="2.5" fill="url(#px)"/>
    <rect x="768" y="72" width="12" height="12" rx="2.5" fill="url(#px)"/>
    <rect x="708" y="87" width="12" height="12" rx="2.5" fill="url(#px)"/>
    <rect x="768" y="87" width="12" height="12" rx="2.5" fill="url(#px)"/>
    <rect x="723" y="102" width="12" height="12" rx="2.5" fill="url(#px)"/>
    <rect x="738" y="102" width="12" height="12" rx="2.5" fill="url(#px)"/>
    <rect x="753" y="102" width="12" height="12" rx="2.5" fill="url(#px)"/>
    <rect x="795" y="12" width="12" height="12" rx="2.5" fill="url(#px)"/>
    <rect x="810" y="12" width="12" height="12" rx="2.5" fill="url(#px)"/>
    <rect x="825" y="12" width="12" height="12" rx="2.5" fill="url(#px)"/>
    <rect x="840" y="12" width="12" height="12" rx="2.5" fill="url(#px)"/>
    <rect x="795" y="27" width="12" height="12" rx="2.5" fill="url(#px)"/>
    <rect x="855" y="27" width="12" height="12" rx="2.5" fill="url(#px)"/>
    <rect x="795" y="42" width="12" height="12" rx="2.5" fill="url(#px)"/>
    <rect x="855" y="42" width="12" height="12" rx="2.5" fill="url(#px)"/>
    <rect x="795" y="57" width="12" height="12" rx="2.5" fill="url(#px)"/>
    <rect x="810" y="57" width="12" height="12" rx="2.5" fill="url(#px)"/>
    <rect x="825" y="57" width="12" height="12" rx="2.5" fill="url(#px)"/>
    <rect x="840" y="57" width="12" height="12" rx="2.5" fill="url(#px)"/>
    <rect x="795" y="72" width="12" height="12" rx="2.5" fill="url(#px)"/>
    <rect x="825" y="72" width="12" height="12" rx="2.5" fill="url(#px)"/>
    <rect x="795" y="87" width="12" height="12" rx="2.5" fill="url(#px)"/>
    <rect x="840" y="87" width="12" height="12" rx="2.5" fill="url(#px)"/>
    <rect x="795" y="102" width="12" height="12" rx="2.5" fill="url(#px)"/>
    <rect x="855" y="102" width="12" height="12" rx="2.5" fill="url(#px)"/>
</svg>
